<?xml version="1.0" standalone="no"?><!DOCTYPE svg PUBLIC "-//W3C//DTD SVG 1.1//EN" "http://www.w3.org/Graphics/SVG/1.1/DTD/svg11.dtd"><svg t="1571119088198" class="icon" viewBox="0 0 1084 1024" version="1.1" xmlns="http://www.w3.org/2000/svg" p-id="4363" xmlns:xlink="http://www.w3.org/1999/xlink" width="33.875" height="32"><defs><style type="text/css"></style></defs><path d="M221.477346 94.448941a34.755765 34.755765 0 0 1 48.188235 10.24l75.896471 117.037177a34.936471 34.936471 0 1 1-58.608941 37.888L211.237346 142.637176a34.695529 34.695529 0 0 1 10.36047-48.188235h-0.12047zM3.425581 345.871059a34.816 34.816 0 0 1 46.381177-16.986353l126.494117 59.030588a35.056941 35.056941 0 0 1 5.12 60.235294 34.755765 34.755765 0 0 1-34.695529 2.891294L20.411934 392.131765a35.056941 35.056941 0 0 1-16.926118-46.260706z m1077.609412 0a34.936471 34.936471 0 0 1-16.865882 46.260706l-126.253177 58.970353a34.936471 34.936471 0 0 1-29.515294-63.247059l126.313412-58.970353a34.936471 34.936471 0 0 1 46.381176 16.986353z m-217.871059-251.422118a34.936471 34.936471 0 0 1 10.24 48.188235l-75.89647 117.037177a34.936471 34.936471 0 1 1-58.548706-38.008471l76.016941-117.037176a34.936471 34.936471 0 0 1 48.188235-10.179765z m4.336941 845.221647H1048.266993a36.141176 36.141176 0 0 1 0 72.282353H36.314052a36.141176 36.141176 0 0 1 0-72.282353h180.705882v-325.270588a325.270588 325.270588 0 0 1 650.480941 0v325.270588z m-578.258823 0h505.97647v-325.270588a252.988235 252.988235 0 1 0-505.97647 0v325.270588zM542.290522 0c19.275294 0 34.816 15.600941 34.816 34.936471v139.504941a34.936471 34.936471 0 1 1-69.75247 0V34.876235A35.117176 35.117176 0 0 1 542.290522 0z" p-id="4364"></path></svg>