<?xml version="1.0" standalone="no"?><!DOCTYPE svg PUBLIC "-//W3C//DTD SVG 1.1//EN" "http://www.w3.org/Graphics/SVG/1.1/DTD/svg11.dtd"><svg t="1592279807566" class="icon" viewBox="0 0 1024 1024" version="1.1" xmlns="http://www.w3.org/2000/svg" p-id="4401" xmlns:xlink="http://www.w3.org/1999/xlink" width="64" height="64"><defs><style type="text/css"></style></defs><path d="M959.33984 924.923494c0 7.79657-3.276626 15.573697-9.871835 21.503756-6.598278 5.930059-15.216563 8.901741-23.840988 8.901741L99.199815 955.328991c-8.619308 0-17.23964-2.971681-23.812335-8.901741-6.597255-5.930059-9.874905-13.707187-9.874905-21.503756l0-736.719064c0-7.80271 3.27765-15.57165 9.874905-21.506826 6.572696-5.924943 15.193027-8.904811 23.812335-8.904811l103.806227 0 0 30.664394c0 50.843992 46.187949 92.041276 103.132892 92.041276 56.974619 0 103.130845-41.198308 103.130845-92.041276l0-30.664394 206.291366 0 0 30.664394c0 50.843992 46.156226 92.041276 103.128799 92.041276 56.94699 0 103.110379-41.198308 103.110379-92.041276l0-30.664394 103.830787 0c8.620331 0 17.238616 2.979868 23.836895 8.904811 6.595208 5.934153 9.871835 13.703093 9.871835 21.506826L959.33984 924.923494 959.33984 924.923494 959.33984 924.923494 959.33984 924.923494M890.594129 372.519272 134.260331 372.519272 134.260331 893.973598l756.333798 0L890.594129 372.519272 890.594129 372.519272 890.594129 372.519272 890.594129 372.519272M306.136887 525.884218 203.006042 525.884218l0-92.012623 103.130845 0L306.136887 525.884218 306.136887 525.884218 306.136887 525.884218M306.136887 679.257352 203.006042 679.257352l0-92.01774 103.130845 0L306.136887 679.257352 306.136887 679.257352 306.136887 679.257352M306.136887 832.646857 203.006042 832.646857l0-92.041276 103.130845 0L306.136887 832.646857 306.136887 832.646857 306.136887 832.646857M478.036979 525.884218 374.883621 525.884218l0-92.012623 103.154381 0L478.038002 525.884218 478.036979 525.884218 478.036979 525.884218M478.036979 679.257352 374.883621 679.257352l0-92.01774 103.154381 0L478.038002 679.257352 478.036979 679.257352 478.036979 679.257352M478.036979 832.646857 374.883621 832.646857l0-92.041276 103.154381 0L478.038002 832.646857 478.036979 832.646857 478.036979 832.646857M649.918651 525.884218 546.784736 525.884218l0-92.012623 103.133915 0L649.918651 525.884218 649.918651 525.884218 649.918651 525.884218M649.918651 679.257352 546.784736 679.257352l0-92.01774 103.133915 0L649.918651 679.257352 649.918651 679.257352 649.918651 679.257352M649.918651 832.646857 546.784736 832.646857l0-92.041276 103.133915 0L649.918651 832.646857 649.918651 832.646857 649.918651 832.646857M821.800323 525.884218 718.689944 525.884218l0-92.012623L821.800323 433.871595 821.800323 525.884218 821.800323 525.884218 821.800323 525.884218M821.800323 679.257352 718.689944 679.257352l0-92.01774L821.800323 587.239612 821.800323 679.257352 821.800323 679.257352 821.800323 679.257352M821.800323 832.646857 718.689944 832.646857l0-92.041276L821.800323 740.605581 821.800323 832.646857 821.800323 832.646857 821.800323 832.646857M717.606263 249.811556c-37.371142 0-67.687612-27.034726-67.687612-60.374042l0-63.258743c0-33.360805 30.316469-60.400648 67.687612-60.400648 37.373189 0 67.686588 27.039843 67.686588 60.400648l0 63.258743C785.291828 222.776829 754.979452 249.811556 717.606263 249.811556L717.606263 249.811556 717.606263 249.811556M305.074695 249.811556c-37.363979 0-67.681472-27.034726-67.681472-60.374042l0-63.258743c0-33.360805 30.312376-60.400648 67.681472-60.400648 37.376259 0 67.692728 27.039843 67.692728 60.400648l0 63.258743C372.767424 222.776829 342.450954 249.811556 305.074695 249.811556L305.074695 249.811556 305.074695 249.811556M305.074695 249.811556 305.074695 249.811556z" p-id="4402"></path></svg>