<?xml version="1.0" standalone="no"?><!DOCTYPE svg PUBLIC "-//W3C//DTD SVG 1.1//EN" "http://www.w3.org/Graphics/SVG/1.1/DTD/svg11.dtd"><svg t="1524796678681" class="icon" style="" viewBox="0 0 1024 1024" version="1.1" xmlns="http://www.w3.org/2000/svg" p-id="30817" xmlns:xlink="http://www.w3.org/1999/xlink" width="200" height="200"><defs><style type="text/css"></style></defs><path d="M654.924231 870.042639c0 0 75.607758 20.586784 133.158165-3.839487l123.78983-224.639911c0 0-27.195211 21.418188-92.309718 15.708538s-137.797629-17.165798-137.797629-17.165798l-4.30188-89.853436-142.288802 182.151774 87.93884 209.971757L654.924231 870.042639z" p-id="30818"></path><path d="M835.873783 319.670522l110.573338 191.518484c0 0 22.503186 32.474438-0.134022 70.571828l-32.060271 55.277819c0 0-31.331822 16.162803-78.526252 16.931531-28.096696 0.457697-69.248228-11.691318-69.248228-11.691318l-122.184821-211.630412L835.873783 319.670522z" p-id="30819"></path><path d="M779.455696 195.022736c0 0-19.975378-75.771582-69.904248-113.398632L453.112626 86.738966c0 0 32.146428 12.842604 59.758876 72.088333 27.612448 59.245728 54.032789 127.919217 54.032789 127.919217l-75.664473 48.652233 228.892301 32.14986 137.871503-181.143179L779.455696 195.022736z" p-id="30820"></path><path d="M212.344411 313.501911l110.573157-191.518303c0 0 16.872106-35.725639 61.183986-35.169864l63.90199 0.126074c0 0 29.663414 19.052759 53.926222 59.539962 14.444724 24.10368 24.499243 65.816405 24.499243 65.816405l-122.184821 211.630412L212.344411 313.501911z" p-id="30821"></path><path d="M130.818927 431.731646c0 0-55.632561 55.184979-63.254098 117.238119l132.648991 219.52505c0 0-4.951037-34.260973 32.551022-87.79669s83.76484-110.753419 83.76484-110.753419l79.966353 41.201203-86.60368-214.301634-225.810343-28.828578L130.818927 431.731646z" p-id="30822"></path><path d="M516.980298 863.624769 295.833983 863.624769c0 0-39.375292 3.251201-61.049964-35.401964l-31.841899-55.403893c0 0 1.668588-35.215562 24.60003-76.471493 13.651973-24.561196 44.749166-54.125087 44.749166-54.125087L516.660958 642.222331 516.980298 863.624769z" p-id="30823"></path></svg>