<?xml version="1.0" standalone="no"?><!DOCTYPE svg PUBLIC "-//W3C//DTD SVG 1.1//EN" "http://www.w3.org/Graphics/SVG/1.1/DTD/svg11.dtd"><svg t="1527561936829" class="icon" style="" viewBox="0 0 1024 1024" version="1.1" xmlns="http://www.w3.org/2000/svg" p-id="3078" xmlns:xlink="http://www.w3.org/1999/xlink" width="32" height="32"><defs><style type="text/css"></style></defs><path d="M805.546667 354.986667h-131.413334v-141.653334c0-87.04-71.68-158.72-158.72-158.72h-6.826666c-87.04 0-158.72 71.68-158.72 158.72v141.653334h-131.413334c-66.56 0-121.173333 54.613333-121.173333 121.173333v423.253333c0 37.546667 30.72 69.973333 69.973333 69.973334h691.2c37.546667 0 69.973333-30.72 69.973334-69.973334V476.16c-1.706667-66.56-56.32-121.173333-122.88-121.173333zM844.8 887.466667h-64.853333v-105.813334c0-8.533333-6.826667-15.36-15.36-15.36h-75.093334c-8.533333 0-15.36 6.826667-15.36 15.36V887.466667H563.2v-105.813334c0-8.533333-6.826667-15.36-15.36-15.36h-75.093333c-8.533333 0-15.36 6.826667-15.36 15.36V887.466667h-110.933334v-105.813334c0-8.533333-6.826667-15.36-15.36-15.36H256c-8.533333 0-15.36 6.826667-15.36 15.36V887.466667h-64.853333V669.013333h665.6V887.466667z m0-300.373334h-665.6v-110.933333c0-20.48 17.066667-39.253333 39.253333-39.253333h213.333334V213.333333c0-42.666667 34.133333-76.8 76.8-76.8h6.826666c42.666667 0 76.8 34.133333 76.8 76.8v223.573334h213.333334c20.48 0 39.253333 17.066667 39.253333 39.253333v110.933333z" p-id="3079"></path></svg>