<?xml version="1.0" standalone="no"?><!DOCTYPE svg PUBLIC "-//W3C//DTD SVG 1.1//EN" "http://www.w3.org/Graphics/SVG/1.1/DTD/svg11.dtd"><svg t="1524796355765" class="icon" style="" viewBox="0 0 1095 1024" version="1.1" xmlns="http://www.w3.org/2000/svg" p-id="25728" xmlns:xlink="http://www.w3.org/1999/xlink" width="213.8671875" height="200"><defs><style type="text/css"></style></defs><path d="M184.501 3.426l397.895 0c0.119 44.034-0.19 88.068 0.161 132.103 1.72 46.366 24.058 96.021 68.172 116.078 14.805 6.622 31.259 7.853 47.274 7.662 47.076 0.02 94.141-0.08 141.215 0.05 0.08 84.527 0.07 169.065 0 253.601-46.086-4.691-93.539-0.631-137.085 15.806-58.018 21.517-108.704 62.18-142.225 114.217-99.692 0.19-199.383-0.05-299.074 0.119-20.076-0.15-39.203 10.573-50.917 26.628-13.004 17.095-15.595 40.964-8.073 60.891 9.352 23.508 33.561 40.532 59.049 40.252 84.646 0.13 169.294 0.02 253.94 0.05-5.952 67.723 10.683 137.624 50.095 193.403-120.358 0.02-240.717 0.02-361.085 0-16.235 0.2-32-4.961-46.354-12.214-28.7-14.626-53.597-36.991-70.603-64.4-10.943-16.877-17.336-36.782-17.106-56.978-0.039-229.402 0.011-458.806-0.02-688.219-1.42-38.902 18.176-75.955 45.304-102.783 18.975-18.356 42.513-33.8 69.432-36.26M251.232 388.037c-21.638 3.211-40.763 18.695-49.126 38.802-8.152 20.737-5.091 45.895 9.163 63.29 11.943 15.435 30.97 25.239 50.617 24.929 128.35 0.039 256.712 0.08 385.073-0.02 30.54 0.311 58.679-24.597 62.678-54.737 6.972-36.633-24.708-73.374-61.67-73.052-126.701-0.18-253.401-0.02-380.101-0.08-5.563-0.011-11.144-0.011-16.635 0.871L251.232 388.037zM646.938 3.426l10.173 0c26.859 4.801 46.915 25.079 67.431 41.474 35.612 30.88 72.923 60.81 101.563 98.581 11.303 14.205 14.855 32.46 13.114 50.227-50.396 0.11-100.792 0.08-151.179 0.011-8.471 0.19-16.185-4.551-21.176-11.153-12.415-14.715-18.875-34.021-19.877-53.086-0.119-42.023-0.02-84.036-0.05-126.05L646.938 3.426z" p-id="25729"></path><path d="M792.45824 732.75392c0 0 189.24544 14.7456 189.58848 154.53696l0 0c-0.3328-139.79648-189.58336-154.54208-189.58336-154.54208l-0.16896-66.35008L628.48 776.4992l163.80928-110.09536L792.45824 732.75392z" p-id="25730"></path><path d="M923.98592 834.5088c44.77952 19.1232 55.81824 45.93152 57.71776 51.65568C979.80416 880.43008 968.7552 853.62688 923.98592 834.5088z" p-id="25731"></path><path d="M814.73536 573.184c-128.53248 0-232.81664 100.88448-232.81664 225.36192S686.1056 1024 814.73536 1024s232.81664-100.97664 232.81664-225.55136C1047.552 674.06848 943.36512 573.184 814.73536 573.184zM981.70368 886.16448c-1.89952-5.72416-12.93824-32.53248-57.71776-51.65568-0.54272-0.2304-1.05472-0.46592-1.60768-0.69632-0.35328-0.14848-0.73728-0.28672-1.09568-0.4352-1.36704-0.55808-2.74432-1.11616-4.1728-1.65888-2.81088-1.07008-5.7856-2.09408-8.84224-3.09248-4.79232-1.56672-9.85088-3.05664-15.27296-4.42368-8.1152-2.04288-16.95744-3.83488-26.58816-5.2992-1.86368-0.2816-3.85024-0.55296-5.97504-0.80896-1.05984-0.128-2.15552-0.25088-3.28704-0.36864-14.68416-1.54112-35.25632-2.41152-64.54272-2.44736l0.17408 71.74656 0 0-164.3008-110.53568 163.8144-110.10048 0.16896 66.35008c0 0 189.25056 14.7456 189.58336 154.54208l0 0c0 0 0 0.00512 0 0.00512C982.04672 887.296 981.9392 886.88128 981.70368 886.16448z" p-id="25732"></path></svg>