<?xml version="1.0" standalone="no"?><!DOCTYPE svg PUBLIC "-//W3C//DTD SVG 1.1//EN" "http://www.w3.org/Graphics/SVG/1.1/DTD/svg11.dtd"><svg t="1593504042557" class="icon" viewBox="0 0 1024 1024" version="1.1" xmlns="http://www.w3.org/2000/svg" p-id="2148" xmlns:xlink="http://www.w3.org/1999/xlink" width="64" height="64"><defs><style type="text/css"></style></defs><path d="M794.429655 1023.948003H88.335518a82.771796 82.771796 0 0 1-85.653649-85.590653v-706.094137a82.833793 82.833793 0 0 1 85.653649-85.653649h706.094137a82.771796 82.771796 0 0 1 85.591653 85.653649v706.094137A89.037478 89.037478 0 0 1 794.429655 1023.948003zM88.335518 209.392375A20.426962 20.426962 0 0 0 65.340686 232.388207v705.969143a20.363966 20.363966 0 0 0 22.994832 22.932835h706.094137a27.820587 27.820587 0 0 0 22.932835-22.932835v-706.094137a20.363966 20.363966 0 0 0-22.932835-22.995832z" p-id="2149"></path><path d="M935.598485 877.641434H848.692899v-62.657818h86.906586a20.363966 20.363966 0 0 0 22.995832-22.995832V85.64366a20.363966 20.363966 0 0 0-22.995832-22.933835H229.567345a20.363966 20.363966 0 0 0-22.995832 22.932835v92.358309h-62.657818V85.64266A82.771796 82.771796 0 0 1 229.567345 0.052007H935.598485a82.771796 82.771796 0 0 1 85.65365 85.590653v706.03214a82.833793 82.833793 0 0 1-85.65365 85.965634z" p-id="2150"></path><path d="M536.090776 854.771595H348.116324a31.328409 31.328409 0 0 1-31.328409-31.329408v-93.987227h-93.988226a31.328409 31.328409 0 0 1-31.328409-31.328409V510.150099a31.328409 31.328409 0 0 1 31.328409-31.328409h93.987226v-93.987226a31.328409 31.328409 0 0 1 31.329409-31.328409h187.974452a31.328409 31.328409 0 0 1 31.328409 31.328409v93.987226h93.987226a31.328409 31.328409 0 0 1 31.329409 31.328409v187.974453a31.328409 31.328409 0 0 1-31.328409 31.329408h-93.988226v93.987227a31.328409 31.328409 0 0 1-31.328409 31.328408z m-156.645043-62.658817H504.760368v-93.987227a31.328409 31.328409 0 0 1 31.328409-31.328408h93.988226V541.480508h-93.987227a31.328409 31.328409 0 0 1-31.328408-31.328409v-93.987226H379.444733v93.986226a31.328409 31.328409 0 0 1-31.329409 31.329409h-93.987226v125.316635h93.987226a31.328409 31.328409 0 0 1 31.328409 31.328408z" p-id="2151"></path></svg>