<?xml version="1.0" standalone="no"?><!DOCTYPE svg PUBLIC "-//W3C//DTD SVG 1.1//EN" "http://www.w3.org/Graphics/SVG/1.1/DTD/svg11.dtd"><svg t="1524795920159" class="icon" style="" viewBox="0 0 1024 1024" version="1.1" xmlns="http://www.w3.org/2000/svg" p-id="11093" xmlns:xlink="http://www.w3.org/1999/xlink" width="200" height="200"><defs><style type="text/css"></style></defs><path d="M740.3 913.7c-121.4 0-219.9-98.4-219.9-219.9 0-121.4 98.4-219.9 219.9-219.9s219.9 98.5 219.9 219.9c0 121.5-98.4 219.9-219.9 219.9zM769.5 572v78.2H602v78.2h167.5v78.2l125.7-117.3L769.5 572zM479.6 694.9c0 68.1 25.4 130 66.9 177H123.3c-32.6 0-59.1-29-59.1-65V175.1c0-35.9 26.4-64.9 59.1-64.9H250c32.7 0 143.3 23.2 162.7 52.1l0.5 0.6c19.5 28.8-6.7 84 25.9 84h385.6c32.6 0 59.1 29.1 59.1 65v160.7c-41.1-27.3-90.1-43.3-142.9-43.3-144.3 0.1-261.3 119-261.3 265.6z" p-id="11094"></path></svg>