<?xml version="1.0" standalone="no"?><!DOCTYPE svg PUBLIC "-//W3C//DTD SVG 1.1//EN" "http://www.w3.org/Graphics/SVG/1.1/DTD/svg11.dtd"><svg t="1523179403130" class="icon" style="" viewBox="0 0 1024 1024" version="1.1" xmlns="http://www.w3.org/2000/svg" p-id="1844" xmlns:xlink="http://www.w3.org/1999/xlink" width="200" height="200"><defs><style type="text/css"></style></defs><path d="M479.174 281.554l19.106 0 0 10.587c0 2.097 0.632 3.981 1.529 5.732 0.907 4.985 5.042 8.768 10.233 8.768 3.543 0 6.523-1.815 8.442-4.476 3.121-2.336 5.273-5.857 5.273-10.025l0-10.587 14.824 0c7.041 0 12.751-5.729 12.751-12.752 0-7.018-5.71-12.75-12.751-12.75l-14.824 0 0-15.904c0-7.044-5.708-12.751-12.75-12.751-7.044 0-12.728 5.707-12.728 12.751l0 15.904-19.106 0c-7.019 0-12.729 5.731-12.729 12.75C466.445 275.825 472.155 281.554 479.174 281.554L479.174 281.554zM479.174 281.554" p-id="1845"></path><path d="M752.595 812.787c17.47-23.921 12.016-56.95 8.878-70.039l-0.786-2.335c-34.403-83.525-105.854-144.91-191.063-164.066l-5.36-1.204 4.479-3.177c52.773-37.6 85.556-117.071 85.556-207.391 0-59.186-14.584-115.308-41.046-158.058l-2.74-4.382-4.84-1.797c-32.126-11.789-66.284-17.777-101.532-17.777-35.265 0-69.403 5.988-101.514 17.777l-4.841 1.797-2.738 4.403c-26.483 42.708-41.062 98.832-41.062 158.04 0 91.963 35.17 174.494 89.572 210.3l4.513 2.964-5.203 1.437c-80.617 22.217-145.833 81.019-178.936 161.312l-0.745 2.35c-3.12 12.881-8.612 45.871 8.917 69.848 6.853 9.375 20.131 20.913 44.512 22.6 23.187 1.607 89.056 3.214 195.79 4.804l0.745 0 0.136 2.446-0.038-2.446c106.164-1.59 171.741-3.198 194.874-4.804C732.443 833.698 745.726 822.16 752.595 812.787L752.595 812.787zM384.831 350.207c2.049-46.9 13.34-89.326 32.608-122.658l0.46-0.802 0.879-0.29c27.078-9.223 55.801-13.913 85.344-13.913 29.563 0 58.307 4.69 85.423 13.913l0.877 0.29 0.461 0.802c19.229 33.332 30.501 75.697 32.566 122.486l0.136 3.119-3.063-0.596c-37.157-7.326-75.964-11.038-115.365-11.038-51.051 0-92.023 6.084-117.395 11.192l-3.062 0.633L384.831 350.207 384.831 350.207zM384.774 386.198l-0.136-2.125 2.068-0.437c20.723-4.46 63.737-11.919 119.136-11.919 39.896 0 78.838 3.94 115.729 11.708l2.087 0.44-0.136 2.125c-6.735 99.716-59.186 177.823-119.383 177.823C444.016 563.813 391.605 485.8 384.774 386.198L384.774 386.198zM512.809 810.181c-1.797-0.036-171.665-3.175-194.128-4.706-10.47-0.745-17.778-4.15-22.352-10.388-10.083-13.759-5.779-37.103-4.227-43.937 38.271-91.64 123.691-150.883 217.721-151.342l4.804 0.095c94.242 0.364 179.719 59.566 217.833 150.845 1.687 7.213 5.973 30.559-4.113 44.336-4.554 6.24-11.842 9.644-22.288 10.391C683.228 807.023 618.208 808.615 512.809 810.181L512.809 810.181zM512.809 810.181" p-id="1846"></path><path d="M343.268 70.773l0 0.021C194.141 72.201 72.099 203.887 69.116 352.389l-0.811 0-1.634 600.408 601.152 1.629 0.043-0.078c148.2-2.602 274.785-124.355 277.74-272.066l0.222 0 1.656-609.864L343.268 70.773zM873.903 705.025C870.89 805.938 793.7 879.965 692.765 883.095l-556.097-0.381 2.662-549.735c2.139-103.473 77.266-191.024 181.383-191.302l555.59 0.36-2.669 562.989L873.903 705.026z" p-id="1847"></path><path d="M829.92 681.965" p-id="1848"></path></svg>