<?xml version="1.0" standalone="no"?><!DOCTYPE svg PUBLIC "-//W3C//DTD SVG 1.1//EN" "http://www.w3.org/Graphics/SVG/1.1/DTD/svg11.dtd"><svg class="icon" width="200px" height="200.00px" viewBox="0 0 1024 1024" version="1.1" xmlns="http://www.w3.org/2000/svg"><path d="M772.386595 69.189189H46.508973A46.495135 46.495135 0 0 0 0 115.698162v782.598919a46.495135 46.495135 0 0 0 46.508973 46.508973h930.982054A46.495135 46.495135 0 0 0 1024 898.310919V296.268108L772.386595 69.203027z" fill="#4CB050" /><path d="M414.969081 678.054054l96.795676-139.734486L609.058595 678.054054h46.121513L534.140541 508.637405l112.321729-156.630486h-46.121513l-88.576 126.948324-88.147027-126.948324h-46.107676l111.42227 156.630486L368.83373 678.054054z" fill="#FFFFFF" /><path d="M819.130811 297.416649a46.522811 46.522811 0 0 1-46.744216-46.495135V69.189189L1024 296.281946l-204.869189 1.134703z" fill="#A7D1A7" /></svg>