<?xml version="1.0" standalone="no"?><!DOCTYPE svg PUBLIC "-//W3C//DTD SVG 1.1//EN" "http://www.w3.org/Graphics/SVG/1.1/DTD/svg11.dtd"><svg class="icon" width="200px" height="200.00px" viewBox="0 0 1024 1024" version="1.1" xmlns="http://www.w3.org/2000/svg"><path d="M772.386595 69.189189H46.508973A46.495135 46.495135 0 0 0 0 115.698162v782.598919a46.495135 46.495135 0 0 0 46.508973 46.508973h930.982054A46.495135 46.495135 0 0 0 1024 898.310919V296.268108L772.386595 69.203027z" fill="#F7622D" /><path d="M374.133622 395.430054l-2.089514-2.103351a16.660757 16.660757 0 0 0-23.704216 0l-108.156541 108.170378c-3.321081 3.321081-4.953946 7.624649-4.940108 11.914378-0.013838 4.303568 1.619027 8.607135 4.940108 11.928217l108.156541 108.170378a16.660757 16.660757 0 0 0 23.704216 0l2.089514-2.103351a16.619243 16.619243 0 0 0 0-23.690379l-94.291027-94.304865 94.291027-94.291027a16.619243 16.619243 0 0 0 0-23.690378M583.084973 333.145946a16.688432 16.688432 0 0 0-21.448649 10.004757l-117.787675 324.829405a16.674595 16.674595 0 0 0 9.990919 21.434811l2.905946 1.134703a16.674595 16.674595 0 0 0 21.448648-10.004757l117.76-324.829406c3.072-8.717838-1.273081-18.376649-9.977081-21.448648l-2.905946-1.120865zM789.282595 501.483243l-108.156541-108.142702a16.633081 16.633081 0 0 0-23.690378 0l-2.089514 2.075675a16.619243 16.619243 0 0 0 0 23.704216l94.277189 94.304865-94.277189 94.291027a16.633081 16.633081 0 0 0 0 23.704217l2.075676 2.075675a16.633081 16.633081 0 0 0 23.704216 0l108.156541-108.142702c3.321081-3.334919 4.967784-7.638486 4.953946-11.928217a16.716108 16.716108 0 0 0-4.953946-11.928216" fill="#FFFFFF" /><path d="M819.130811 297.416649a46.522811 46.522811 0 0 1-46.744216-46.495135V69.189189L1024 296.281946l-204.869189 1.134703z" fill="#FEB5A0" /></svg>