<?xml version="1.0" standalone="no"?><!DOCTYPE svg PUBLIC "-//W3C//DTD SVG 1.1//EN" "http://www.w3.org/Graphics/SVG/1.1/DTD/svg11.dtd"><svg t="1525757164398" class="icon" style="" viewBox="0 0 1024 1024" version="1.1" xmlns="http://www.w3.org/2000/svg" p-id="2904" xmlns:xlink="http://www.w3.org/1999/xlink" width="200" height="200"><defs><style type="text/css"></style></defs><path d="M995.02459307 436.7549632L880.94340693 329.9555552 584.81777813 58.1025184c-19.4180736-19.4180736-48.54518507-31.55437013-77.67229653-31.55437013-29.12711147 0-58.25422187 12.13629653-77.67229653 31.55437013L28.97540693 436.7549632c-33.98162987 33.98162987-26.69985173 60.6814816-24.272592 67.96325867 4.8545184 12.13629653 16.99081493 26.69985173 46.11792534 26.69985173h58.25422293c14.5635552 0 24.27259307 12.13629653 24.272592 24.27259307v322.8254816c0 55.8269632 38.83614827 116.5084448 101.9448896 116.5084448H783.8530368c63.10874027 0 101.94488853-60.6814816 101.9448896-116.5084448V558.1179264c0-14.5635552 12.13629653-24.27259307 24.272592-24.27259307h58.25422187c29.12711147 0 41.26340693-14.5635552 46.1179264-29.12711146 7.28177813-7.28177813 14.5635552-31.55437013-19.4180736-67.96325867z m-327.68 412.6340736c0 31.55437013-24.27259307 55.8269632-55.8269632 55.8269632h-196.608c-31.55437013 0-55.8269632-26.69985173-55.8269632-55.8269632V579.96325973c0-31.55437013 24.27259307-55.8269632 55.8269632-55.8269632h196.608c31.55437013 0 55.8269632 26.69985173 55.8269632 55.8269632v269.42577707z" fill="" p-id="2905"></path></svg>