<?xml version="1.0" standalone="no"?><!DOCTYPE svg PUBLIC "-//W3C//DTD SVG 1.1//EN" "http://www.w3.org/Graphics/SVG/1.1/DTD/svg11.dtd"><svg t="1526980747728" class="icon" style="" viewBox="0 0 1024 1024" version="1.1" xmlns="http://www.w3.org/2000/svg" p-id="2036" xmlns:xlink="http://www.w3.org/1999/xlink" width="200" height="200"><defs><style type="text/css"></style></defs><path d="M868.304985 682.33341c13.187347-13.43908 35.184337-13.43908 48.372708 0 13.440104 13.43908 13.440104 35.186384 0 48.624441l-84.560908 85.062327 84.560908 84.787059c13.440104 13.46364 13.440104 35.43607 0 48.650023-13.18837 13.688767-35.186384 13.688767-48.372708 0l-85.314061-84.811618-84.787058 84.811618c-13.688767 13.688767-35.210943 13.688767-48.399313 0-13.939477-13.213953-13.939477-35.186384 0-48.650023l84.560907-84.787059-84.560907-85.062327c-13.939477-13.43908-13.939477-35.186384 0-48.624441 13.18837-13.43908 35.186384-13.43908 48.399313 0l84.787058 84.808548 85.314061-84.808548zM564.996005 890.796232H165.911704V133.197628h364.397291L748.532111 351.670431v284.240693c0 19.044752 15.641235 34.435277 34.459836 34.435277 19.320021 0 34.459836-15.390525 34.459837-34.435277V337.255117c0-8.562003-2.927679-17.59268-10.009982-24.200168L569.148581 74.537623c-6.331195-6.359848-15.140839-10.260691-24.423249-10.260691H131.701554c-19.069311 0-34.459836 15.390525-34.459836 34.21015V925.257092c0 19.315928 15.390525 34.459836 34.459836 34.459836h433.294451c19.317974 0 34.95921-15.143908 34.959209-34.459836-0.001023-19.070334-15.641235-34.46086-34.959209-34.46086z m46.195111-460.920648c11.737322 0 21.021779 8.80862 21.02178 20.295232 0 11.486612-9.284457 20.771069-21.02178 20.771069H303.752072c-11.737322 0-21.021779-9.284457-21.021779-20.771069 0-11.486612 9.284457-20.295232 21.021779-20.295232h307.439044z m0 94.096075c11.737322 0 21.021779 9.033747 21.02178 20.771069 0 11.236925-9.284457 20.521383-21.02178 20.521383H495.848135c-11.486612 0-20.545942-9.284457-20.545942-20.521383 0-11.737322 9.05933-20.771069 20.545942-20.771069H611.191116z m-192.32119 0c11.488659 0 20.771069 9.033747 20.771069 20.771069 0 11.236925-9.282411 20.521383-20.771069 20.521383H303.753095c-11.737322 0-21.021779-9.284457-21.021779-20.521383 0-11.737322 9.284457-20.771069 21.021779-20.771069h115.116831z m137.590682 94.570889c11.236925 0 20.270672 9.284457 20.270672 20.521383 0 11.261485-9.033747 20.796652-20.270672 20.796652h-60.61145c-11.486612 0-20.545942-9.535167-20.545942-20.796652 0-11.236925 9.05933-20.521383 20.545942-20.521383h60.61145z m-137.590682 0c11.488659 0 20.771069 9.284457 20.771069 20.521383 0 11.261485-9.282411 20.796652-20.771069 20.796652H303.753095c-11.737322 0-21.021779-9.535167-21.021779-20.796652 0-11.236925 9.284457-20.521383 21.021779-20.521383h115.116831z m137.590682 94.346785c11.236925 0 20.270672 9.284457 20.270672 21.021779a20.217461 20.217461 0 0 1-20.270672 20.270673H303.752072c-11.737322 0-21.021779-9.033747-21.021779-20.270673 0-11.737322 9.284457-21.021779 21.021779-21.021779h252.708536z" p-id="2037"></path></svg>