<?xml version="1.0" standalone="no"?><!DOCTYPE svg PUBLIC "-//W3C//DTD SVG 1.1//EN" "http://www.w3.org/Graphics/SVG/1.1/DTD/svg11.dtd"><svg t="1526625347048" class="icon" style="" viewBox="0 0 1024 1024" version="1.1" xmlns="http://www.w3.org/2000/svg" p-id="12458" xmlns:xlink="http://www.w3.org/1999/xlink" width="200" height="200"><defs><style type="text/css"></style></defs><path d="M1011.76832 544.0768l-164.16256-435.42016h-176.91648v33.52576h135.02976l110.72 397.6448H678.5024L509.39392 696.2176 329.8816 539.82208H94.5408l110.6944-397.6448H342.8864v-33.52576H168.58112L7.28064 550.28224h0.90624a15.6672 15.6672 0 0 0-0.90624 5.22752v446.83264a15.64672 15.64672 0 0 0 15.60576 15.68256h978.2272a15.64672 15.64672 0 0 0 15.61088-15.68256v-446.83264a15.68256 15.68256 0 0 0-4.95616-11.43296z m-423.63904-341.09952h90.22976L506.79296 0 339.99872 202.97728H430.2336v219.84768h157.9008V202.97728z m-157.9008 270.58176h157.9008v-28.1856h-157.9008v28.1856z m-292.38272 471.22944l-27.27936-36.0704 252.48768-190.96064 109.12256 144.29184 284.16-186.56256-54.54848-72.14592 158.37696 21.98016-21.98016 158.37696-54.56384-72.13568-320.2304 213.83168-109.12256-144.2816-216.4224 163.67616z" fill="" p-id="12459"></path></svg>