<?xml version="1.0" standalone="no"?><!DOCTYPE svg PUBLIC "-//W3C//DTD SVG 1.1//EN" "http://www.w3.org/Graphics/SVG/1.1/DTD/svg11.dtd"><svg class="icon" width="200px" height="200.00px" viewBox="0 0 1024 1024" version="1.1" xmlns="http://www.w3.org/2000/svg"><path d="M772.386595 69.189189H46.508973A46.495135 46.495135 0 0 0 0 115.698162v782.598919a46.495135 46.495135 0 0 0 46.508973 46.508973h930.982054A46.495135 46.495135 0 0 0 1024 898.310919V296.268108L772.386595 69.203027z" fill="#6A6AE2" /><path d="M435.739676 678.054054v-133.341405h95.439567c74.890378 0 112.792216-32.422054 112.792216-96.809514 0-63.930811-37.445189-95.896216-112.335567-95.896216h-133.341406V678.054054h37.44519z m93.612973-165.763459h-93.612973v-127.861622h93.612973c26.028973 0 45.208216 5.023135 57.994378 15.982703 12.786162 9.589622 19.179243 25.572324 19.179243 47.491459 0 21.919135-6.393081 37.901838-18.722594 48.404757-12.786162 10.502919-31.965405 15.982703-58.451027 15.982703z" fill="#FFFFFF" /><path d="M819.130811 297.416649a46.522811 46.522811 0 0 1-46.744216-46.495135V69.189189L1024 296.281946l-204.869189 1.134703z" fill="#B5B5F2" /></svg>