<?xml version="1.0" standalone="no"?><!DOCTYPE svg PUBLIC "-//W3C//DTD SVG 1.1//EN" "http://www.w3.org/Graphics/SVG/1.1/DTD/svg11.dtd"><svg class="icon" width="200px" height="200.00px" viewBox="0 0 1024 1024" version="1.1" xmlns="http://www.w3.org/2000/svg"><path d="M772.386595 69.189189H46.508973A46.495135 46.495135 0 0 0 0 115.698162v782.598919a46.495135 46.495135 0 0 0 46.508973 46.508973h930.982054A46.495135 46.495135 0 0 0 1024 898.310919V296.268108L772.386595 69.203027z" fill="#FA4E4E" /><path d="M819.130811 297.416649a46.522811 46.522811 0 0 1-46.744216-46.495135V69.189189L1024 296.281946l-204.869189 1.134703z" fill="#FFA4A4" /><path d="M681.513514 774.559135c-53.635459 0-101.320649-90.859243-126.865298-149.766919a932.019892 932.019892 0 0 0-134.503784-44.599351c-40.032865 26.070486-107.284757 64.788757-159.232 64.788757-29.059459 2.144865-55.683459-16.093405-63.847783-43.741406a50.272865 50.272865 0 0 1 5.95027-47.117838c13.63027-18.515027 41.721081-27.772541 84.272432-27.77254 42.565189 1.051676 84.853622 6.988108 126.02119 17.670919a758.534919 758.534919 0 0 0 91.108324-74.032433c-12.772324-58.88-26.388757-153.945946 8.51027-197.715027a66.352432 66.352432 0 0 1 74.931892-18.501189 68.137514 68.137514 0 0 1 51.919568 47.117838c14.488216 57.219459-51.919568 134.600649-97.058595 180.057946a841.907892 841.907892 0 0 0 39.161081 118.631784c64.691892 28.588973 141.339676 70.656 149.836108 116.929729a46.163027 46.163027 0 0 1-14.474378 43.727568 55.254486 55.254486 0 0 1-35.729297 14.322162z m-79.180109-127.889297c32.366703 64.788757 63.017514 95.065946 79.180109 95.065946 4.179027-0.276757 8.122811-2.075676 11.056432-5.036973 5.95027-5.881081 5.95027-10.101622 5.12-13.450379-3.404108-16.840649-30.636973-44.599351-95.342703-76.578594zM287.328865 560.017297c-41.707243 0-53.635459 10.101622-57.039568 14.322162a19.372973 19.372973 0 0 0-0.83027 17.657082c2.546162 10.101622 9.368216 20.203243 31.481081 20.203243a253.689081 253.689081 0 0 0 112.377081-42.080865 444.291459 444.291459 0 0 0-85.988324-10.101622z m168.558703-5.036973c27.260541 7.569297 55.351351 16.826811 81.72627 26.928433a823.974054 823.974054 0 0 1-23.828757-74.032433 1602.227892 1602.227892 0 0 1-57.869838 47.104h-0.027675z m105.582702-271.747459a27.592649 27.592649 0 0 0-22.14054 10.101621c-17.878486 21.863784-19.594378 77.395027-5.950271 148.064865 51.919568-54.687135 80.038054-105.167568 73.229838-132.068324-0.844108-4.220541-4.275892-15.982703-28.090811-22.72173a46.813405 46.813405 0 0 0-17.048216-3.376432z" fill="#FFFFFF" /></svg>