<?xml version="1.0" standalone="no"?><!DOCTYPE svg PUBLIC "-//W3C//DTD SVG 1.1//EN" "http://www.w3.org/Graphics/SVG/1.1/DTD/svg11.dtd"><svg class="icon" width="200px" height="200.00px" viewBox="0 0 1024 1024" version="1.1" xmlns="http://www.w3.org/2000/svg"><path d="M772.386595 69.189189H46.508973A46.495135 46.495135 0 0 0 0 115.698162v782.598919a46.495135 46.495135 0 0 0 46.508973 46.508973h930.982054A46.495135 46.495135 0 0 0 1024 898.310919V296.268108L772.386595 69.203027z" fill="#FF9333" /><path d="M492.530162 343.35827v188.09773h188.111568C680.655568 635.461189 596.355459 719.567568 492.530162 719.567568 388.524973 719.567568 304.432432 635.461189 304.432432 531.456c0-104.019027 84.300108-188.09773 188.09773-188.09773zM537.945946 304.432432C638.173405 304.432432 719.567568 385.826595 719.567568 486.054054H537.945946z" fill="#FFFFFF" /><path d="M819.130811 297.416649a46.522811 46.522811 0 0 1-46.744216-46.495135V69.189189L1024 296.281946l-204.869189 1.134703z" fill="#FFCA9F" /></svg>