<?xml version="1.0" standalone="no"?><!DOCTYPE svg PUBLIC "-//W3C//DTD SVG 1.1//EN" "http://www.w3.org/Graphics/SVG/1.1/DTD/svg11.dtd"><svg t="1526632845776" class="icon" style="" viewBox="0 0 1024 1024" version="1.1" xmlns="http://www.w3.org/2000/svg" p-id="1472" xmlns:xlink="http://www.w3.org/1999/xlink" width="200" height="200"><defs><style type="text/css"></style></defs><path d="M694.242 1024.003 329.763 1024.003C147.915 1024.003 0 876.092 0 694.242L0 329.763C0 147.916 147.915 0 329.763 0l364.479 0c181.85 0 329.761 147.916 329.761 329.763l0 364.479C1024.003 876.092 876.092 1024.003 694.242 1024.003zM329.763 52.083c-153.105 0-277.681 124.575-277.681 277.683l0 364.476c0 153.1 124.575 277.691 277.681 277.691l364.479 0c153.1 0 277.681-124.58 277.681-277.691L971.923 329.763c0-153.105-124.58-277.681-277.681-277.681L329.763 52.082 329.763 52.083z" p-id="1473"></path><path d="M729.522 930.882 313.038 930.882c-45.678 0-87.328-37.105-95.388-85.63l-60.458-388.199c-4.03-24.262 1.343-48.522 16.123-67.078 14.778-18.552 36.275-28.542 59.113-28.542l577.704 0c22.84 0 45.68 9.99 59.115 28.542 14.78 18.555 20.155 42.815 16.12 67.078l-60.455 388.199C816.852 893.777 775.202 930.882 729.522 930.882L729.522 930.882 729.522 930.882zM232.428 422.801c-6.718 0-12.09 2.855-16.12 7.137-4.033 4.28-5.375 11.417-4.033 18.552l60.458 386.771c2.688 18.55 21.498 35.68 40.305 35.68l416.484 0c18.81 0 36.275-17.13 40.305-35.68l60.46-386.771c1.345-7.135 0-14.272-4.03-18.552-4.03-4.282-9.405-7.137-16.125-7.137L232.428 422.801 232.428 422.801 232.428 422.801zM717.432 332.888c-16.12 0-28.215-12.845-28.215-29.97 0-85.633-90.01-149.855-170.62-149.855-81.955 0-166.595 55.66-166.595 148.428 0 17.125-12.093 29.97-28.215 29.97-16.12 0-28.213-12.845-28.213-29.97 0-129.875 114.198-208.371 223.023-208.371 107.48 0 225.706 85.633 225.706 208.371C745.647 320.043 733.552 332.888 717.432 332.888L717.432 332.888 717.432 332.888z" p-id="1474"></path><path d="M670.967 673.182c0 19.58-3.41 38.02-10.22 55.315-6.805 17.3-16.13 32.62-27.995 45.975-11.855 13.35-25.82 24.29-41.9 32.81-16.08 8.525-33.395 13.67-51.93 15.455-1.18 0.25-2.24 0.44-3.185 0.57-0.93 0.12-1.99 0.19-3.165 0.19l-60.915 0c-3.99 0-7.918-0.76-11.798-2.285-3.872-1.53-7.335-3.625-10.387-6.3-3.047-2.675-5.575-5.785-7.565-9.345-2-3.56-2.997-7.25-2.997-11.065 0-3.82 0.94-7.505 2.818-11.07 1.875-3.555 4.345-6.61 7.397-9.15s6.453-4.58 10.205-6.11c3.762-1.525 7.632-2.285 11.622-2.285l54.585 0.38c12.44 0 24.175-2.48 35.215-7.435 11.025-4.96 20.65-11.64 28.87-20.03 8.21-8.395 14.67-18.25 19.37-29.565 4.69-11.32 7.03-23.465 7.03-36.445 0-12.2-2.105-23.65-6.33-34.33-4.225-10.68-10.04-20.22-17.43-28.615-7.4-8.385-16.025-15.2-25.885-20.41-9.855-5.215-20.545-8.46-32.04-9.725-0.475 0-0.765 0.06-0.88 0.185s-0.41 0.19-0.885 0.19l-55.988 0 0 30.135c0 4.33-1.585 7.51-4.753 9.545-3.165 2.035-8.275 0.765-15.315-3.815-1.88-1.275-4.87-3.495-8.98-6.685-4.108-3.17-8.917-6.93-14.438-11.245-5.518-4.33-11.328-8.905-17.428-13.74l-17.605-14.495c-3.525-3.05-6.578-5.785-9.16-8.2-2.58-2.415-3.873-5.41-3.873-8.965 0-3.055 1.468-6.24 4.403-9.545 2.938-3.305 6.277-6.605 10.032-9.915 4.228-3.815 9.275-8.26 15.143-13.35 5.873-5.09 11.68-10.05 17.432-14.882 5.748-4.83 10.92-9.22 15.493-13.163 4.575-3.942 7.805-6.675 9.685-8.202 5.635-4.33 10.21-5.213 13.73-2.67 3.523 2.54 5.398 6.358 5.633 11.448l0 30.515 55.988 0c1.175 0 2.41 0.135 3.7 0.385s2.52 0.51 3.7 0.76c18.305 2.035 35.445 7.255 51.41 15.65 15.96 8.385 29.875 19.26 41.72 32.62 11.855 13.345 21.13 28.67 27.825 45.97C667.612 635.537 670.967 653.847 670.967 673.182L670.967 673.182z" p-id="1475"></path></svg>