<?xml version="1.0" standalone="no"?><!DOCTYPE svg PUBLIC "-//W3C//DTD SVG 1.1//EN" "http://www.w3.org/Graphics/SVG/1.1/DTD/svg11.dtd"><svg t="1525746596139" class="icon" style="" viewBox="0 0 1024 1024" version="1.1" xmlns="http://www.w3.org/2000/svg" p-id="10924" xmlns:xlink="http://www.w3.org/1999/xlink" width="200" height="200"><defs><style type="text/css"></style></defs><path d="M694.238 1023.997 329.762 1023.997C147.915 1023.997 0 876.088 0 694.238L0 329.762C0 147.915 147.915 0 329.762 0l364.477 0c181.849 0 329.759 147.915 329.759 329.762l0 364.476C1023.997 876.088 876.088 1023.997 694.238 1023.997zM329.762 52.082c-153.105 0-277.679 124.575-277.679 277.682l0 364.474c0 153.1 124.575 277.689 277.679 277.689l364.477 0c153.1 0 277.679-124.58 277.679-277.689L971.918 329.762c0-153.105-124.58-277.679-277.679-277.679L329.762 52.083 329.762 52.082z" p-id="10925"></path><path d="M751.773 165.95c0 0-86.59 38.448-130.415 38.448-92.865 0-137.28-76.897-230.234-76.897-43.937 0-130.607 38.45-130.607 38.45l131.355 346.049c0 0 86.065-38.45 129.232-38.45 92.8 0 138.445 76.9 231.744 76.9 43.755 0 130.28-38.45 130.28-38.45L751.773 165.95 751.773 165.95zM205.277 169.167l183.737 727.331 43.997-3.505L241.677 159.217l-36.4 9.952L205.277 169.167z" p-id="10926"></path></svg>