<?xml version="1.0" standalone="no"?><!DOCTYPE svg PUBLIC "-//W3C//DTD SVG 1.1//EN" "http://www.w3.org/Graphics/SVG/1.1/DTD/svg11.dtd"><svg t="1528094658436" class="icon" style="" viewBox="0 0 1024 1024" version="1.1" xmlns="http://www.w3.org/2000/svg" p-id="2625" xmlns:xlink="http://www.w3.org/1999/xlink" width="200" height="200"><defs><style type="text/css"></style></defs><path d="M543.308053 349.22166l31.097252-31.208792-59.772338 0 0 69.305459c17.900695-4.864798 37.896098-10.06524 59.97393-15.604396L543.308053 349.22166zM639.019928 172.915211 514.631944 172.915211l0 27.152407 124.387985 0L639.019928 172.915211zM623.473861 348.001879c14.403035-9.725502 28.470425-19.723204 42.202171-29.989011l-88.242763 0L623.473861 348.001879zM639.019928 243.029082 514.631944 243.029082 514.631944 270.186605l124.387985 0L639.019928 243.029082zM313.697585 577.446571l396.584364 0c32.039717 0 58.003042-25.977651 58.003042-58.016345L768.284991 122.859165c0-32.030507-25.964348-58.012252-58.003042-58.012252L313.697585 64.846914c-32.034601 0-58.003042 25.981744-58.003042 58.012252l0 396.571061C255.69352 551.469943 281.661961 577.446571 313.697585 577.446571zM385.401674 108.87671c23.149233 28.104081 41.863457 52.826136 56.136531 74.170257l-47.657416 31.615045c-18.038842-28.9084-35.403325-54.581106-52.093449-77.006861L385.401674 108.87671zM335.324138 304.638255l0-53.500495 88.443331 0 0 168.19777c11.172457 14.18814 27.326369 23.50739 48.461735 27.970028l-21.00029-35.671431c7.540743-8.643867 11.440563-21.205974 11.712763-37.690414L462.941678 125.087926 690.715311 125.087926l0 176.10588 31.900547 37.08257c-20.594037 13.107529-40.656979 25.195845-60.174498 36.274158 18.7132 12.700253 36.077683 24.927739 52.097542 36.681434l-35.939537 37.284161-93.898577-69.50705c-0.674359 17.020652-1.010003 30.194696-1.010003 39.518039-51.15917 12.155854-85.34783 22.291702-102.57826 30.395264 16.019859 1.89414 50.41318 2.836605 103.186104 2.836605 39.709397 0 89.721441-0.536212 150.029992-1.62194-8.349155 20.803815-14.94334 38.503942-19.789719 53.094242l-144.17361-1.62194-86.424348-1.62194c-12.388145-0.268106-26.285666-3.27458-41.697681-9.015328-15.416108-5.744841-29.515221-15.706727-42.305525-29.890774l-44.020586 50.256614-23.01518-62.010309c11.713786-10.806113 25.169239-22.627347 40.384779-35.465746L373.286752 304.638255 335.324138 304.638255zM817.211307 625.24725c-86.196151-32.463366-112.160499-17.23964-160.063509 12.352329-20.250206 12.508895-86.205361 60.138682-86.205361 60.138682s-41.036625 38.011732-125.857453 38.011732c-51.981908 0-84.998883 5.535063-84.998883 37.127595 0 34.523281 65.084321 37.065174 65.339124 37.065174l122.475426 0c54.403051 0 130.811278-30.958082 130.811278-30.958082s-64.708767 68.76106-130.811278 68.76106L425.044556 847.74574c-35.465746-0.687662-102.533234-17.774829-102.533234-74.853825 0-74.27361 68.381413-74.27361 154.943908-74.27361 6.754844 0 12.875239-1.094938 18.937305-2.326998-3.297093-1.746784-6.602372-3.480264-10.712993-5.776563-15.434527-8.626471-36.167734-20.956288-59.687404-35.390022-61.702294-37.829584-93.428879-42.61354-124.239606-2.496867-21.460778-21.532409-48.469921-27.451212-71.575152-27.451212-26.084075 0-48.171116 17.002232-41.961694 44.49847-66.946738-39.102576-99.955526-23.364127-114.626667-4.498454-19.401886 24.922622-6.124488 50.891064 36.502355 80.647785 27.29567 19.075451 287.367917 171.101913 324.049351 191.977359 42.99728 24.521486 54.197366 27.250644 119.55798 6.777357 43.180452-13.536294 104.923678-33.499975 149.412938-54.125735 39.629579-18.378579 67.965951-18.937305 98.079806 0l50.297546 30.257118L958.279183 686.449147C958.279183 686.449147 870.461091 645.300982 817.211307 625.24725z" p-id="2626"></path></svg>