<?xml version="1.0" standalone="no"?><!DOCTYPE svg PUBLIC "-//W3C//DTD SVG 1.1//EN" "http://www.w3.org/Graphics/SVG/1.1/DTD/svg11.dtd"><svg class="icon" width="200px" height="200.00px" viewBox="0 0 1024 1024" version="1.1" xmlns="http://www.w3.org/2000/svg"><path d="M772.386595 69.189189H46.508973A46.495135 46.495135 0 0 0 0 115.698162v782.598919a46.495135 46.495135 0 0 0 46.508973 46.508973h930.982054A46.495135 46.495135 0 0 0 1024 898.310919V296.268108L772.386595 69.203027z" fill="#2695F9" /><path d="M425.430486 678.054054V533.614703h101.625082c21.171892 0 37.168432 3.763892 48.460108 12.232648 12.232649 8.468757 19.289946 23.053838 21.171892 42.814271l4.234378 44.696216c1.411459 18.819459 6.116324 33.404541 13.644108 44.696216h41.873297c-9.880216-12.232649-15.996541-28.699676-17.878486-49.401081l-5.175351-51.753514c-3.763892-33.875027-21.642378-54.105946-53.63546-61.163243v-0.940973c19.289946-4.704865 34.345514-14.114595 45.637189-29.170162 10.350703-14.585081 15.526054-31.052108 15.526054-49.871567 0-31.052108-10.350703-54.576432-30.111135-70.572973-19.289946-15.526054-45.637189-23.053838-79.04173-23.053838H386.850595V678.054054h38.579891z m101.625082-177.843892h-101.625082v-124.678919h101.625082c25.876757 0 45.166703 5.175351 57.399351 15.526054 11.291676 9.880216 17.408 25.40627 17.408 46.107676 0 19.760432-6.116324 34.816-17.878487 45.637189-13.173622 11.291676-32.463568 17.408-56.928864 17.408z" fill="#FFFFFF" /><path d="M819.130811 297.416649a46.522811 46.522811 0 0 1-46.744216-46.495135V69.189189L1024 296.281946l-204.869189 1.134703z" fill="#ACD9FF" /></svg>