<?xml version="1.0" standalone="no"?><!DOCTYPE svg PUBLIC "-//W3C//DTD SVG 1.1//EN" "http://www.w3.org/Graphics/SVG/1.1/DTD/svg11.dtd"><svg t="1592279691038" class="icon" viewBox="0 0 1024 1024" version="1.1" xmlns="http://www.w3.org/2000/svg" p-id="3631" xmlns:xlink="http://www.w3.org/1999/xlink" width="64" height="64"><defs><style type="text/css"></style></defs><path d="M236.01664 111.69792c0 21.05344-0.19456 41.92768 0.40448 62.98112 0.59904 16.57856 10.09152 28.69248 24.36608 36.08576 21.9904 11.50976 43.94496 10.34752 64.15872-4.49024 11.46368-8.38144 17.82272-19.69664 17.82272-34.11456V105.27232h330.50624c0 1.53088 0.20992 3.29216 0.20992 5.05344 0 19.32288 0.57856 38.83008-0.20992 58.10688-0.98304 22.03648 13.25568 39.40864 32.6656 46.22336 19.21024 6.83008 37.65248 4.89472 54.66624-6.81472 13.07648-9.15456 19.7888-21.8624 19.7888-37.84192-0.19456-19.5072 0-38.9888 0-58.49088v-6.05696c1.98656-0.1792 3.39456-0.1792 4.76672-0.1792 26.52672 0 53.26336-0.21504 79.81056 0 32.8704 0.38912 61.37856 11.30496 83.5584 35.85536 14.85312 16.59904 21.38112 36.2752 21.38112 58.1376v347.50976c0 122.28608-0.57856 244.74624 0.20992 367.04256 0.40448 51.08736-36.43904 83.84-76.64128 93.00992-10.112 2.33984-20.80256 3.32288-31.28832 3.32288-235.84768 0.19456-471.71072 0.19456-707.5584 0.19456-27.14112 0-51.8912-6.63552-73.28256-23.39328-22.95808-18.11456-34.45248-41.53856-34.45248-70.59968v-304.99328c0-135.7568 0.6144-271.6928-0.38912-407.39328-0.384-54.03648 37.62176-86.21568 78.208-95.3856a112.75264 112.75264 0 0 1 25.5744-2.92352c27.3152-0.38912 54.84544-0.20992 82.176-0.20992 0.77312-0.36864 1.58208-0.36864 3.55328-0.36864l-0.00512 6.62016z m686.65344 150.1952H93.568v655.31392c0.20992 8.66816 3.11296 16.41984 8.54016 22.50752 9.3952 10.52672 21.27872 13.09696 34.00192 13.09696h741.26848c4.80256 0 9.8048-0.2304 14.61248-0.93696 15.85664-2.57024 30.86336-15.46752 30.86336-38.656-0.20992-214.76352-0.20992-429.75232-0.20992-644.5312v-6.79424h0.0256z" p-id="3632"></path><path d="M317.40416 104.20736v54.59968c0 17.16224-9.70752 26.1376-27.33568 25.15456-12.86656-0.77312-21.95968-7.39328-23.74656-17.3568-0.40448-1.95584-0.40448-3.90656-0.40448-5.8624V49.00864c0-16.16384 9.68704-25.9328 26.34752-24.94464 5.53984 0.38912 11.26912 2.33984 16.22528 4.85888 5.94432 3.13344 8.91392 8.59136 8.91392 15.79008a2811.776 2811.776 0 0 0 0 59.50976v-0.01536zM701.78304 104.20736V49.00864c0-17.34144 12.48256-27.68896 30.11584-24.55552 11.88352 1.95072 19.21024 7.99232 20.992 17.16224 0.384 1.94048 0.384 3.87584 0.384 5.84704 0 37.83168-0.19456 75.6736 0.19456 113.67936 0.19456 14.04416-9.49248 21.0688-20.37248 22.82496-6.5536 1.1776-13.27104 0.58368-19.23584-2.5344-7.70048-3.8912-12.05248-9.55904-11.86304-18.5344 0-19.69664-0.18944-39.18336-0.18944-58.68544h-0.0256zM453.248 794.0864c-6.41024 0-12.69248-3.30752-18.19648-9.5744a261541.888 261541.888 0 0 1-133.25824-151.13216c-6.5536-7.44448-12.20608-13.87008-13.75744-22.1696-1.67936-9.3952 0.29184-18.82624 5.47328-25.85088 2.85696-3.87072 7.99232-8.71424 16.09728-9.7024 0.83968-0.09728 1.72544-0.14336 2.59584-0.14336 6.44608 0 11.99616 2.85696 17.52064 9.00608 36.77696 41.66144 73.62048 83.40992 110.23872 125.14304 1.98656 2.33984 3.85536 4.38784 6.13888 6.84544l14.70464-0.20992 11.8016-13.42976c10.07616-11.4688 19.95776-22.7072 29.952-33.94048 51.68128-58.60352 103.17824-117.18144 154.79296-175.86688l29.20448-33.21344c5.65248-6.50752 11.38688-9.63584 17.55136-9.63584 1.41824 0 2.90816 0.15872 4.42368 0.48128 9.61024 2.02752 15.77472 8.0384 18.90304 18.34496 3.77856 12.3648 1.45408 23.13216-7.08608 32.91648l-248.9088 282.55744c-5.48352 6.26176-11.78112 9.5744-18.19136 9.5744z" p-id="3633"></path></svg>