<?xml version="1.0" standalone="no"?><!DOCTYPE svg PUBLIC "-//W3C//DTD SVG 1.1//EN" "http://www.w3.org/Graphics/SVG/1.1/DTD/svg11.dtd"><svg t="1593396922772" class="icon" viewBox="0 0 1024 1024" version="1.1" xmlns="http://www.w3.org/2000/svg" p-id="2565" xmlns:xlink="http://www.w3.org/1999/xlink" width="64" height="64"><defs><style type="text/css"></style></defs><path d="M921.582 0H201.946C145.228 0 99.528 45.88 99.528 102.418v819.164c0 56.538 45.88 102.418 102.418 102.418h719.817c56.537 0 102.418-45.88 102.418-102.418V102.418C1024 45.88 978.12 0 921.58 0z m30.165 910.925c0 22.579-18.424 41.003-41.003 41.003h-698.14c-22.58 0-41.004-18.424-41.004-41.003V113.256c0-22.579 18.424-41.003 41.003-41.003h698.141c22.579 0 41.003 18.424 41.003 41.003v797.669z" p-id="2566"></path><path d="M234.821 293.707H35.946C16.076 293.707 0 309.783 0 329.652s16.076 35.946 35.946 35.946H234.82c19.87 0 35.946-16.076 35.946-35.946s-16.077-35.945-35.946-35.945z m0 364.695H35.946C16.076 658.402 0 674.478 0 694.348s16.076 35.945 35.946 35.945H234.82c19.87 0 35.946-16.076 35.946-35.945s-16.077-35.946-35.946-35.946zM595.723 243.13c63.582 0 115.243 51.66 115.243 115.243 0 63.582-51.661 115.243-115.243 115.243S480.48 421.956 480.48 358.373c-0.18-63.582 51.66-115.243 115.243-115.243m0-72.253c-103.502 0-187.496 83.994-187.496 187.496s83.994 187.495 187.496 187.495 187.495-83.993 187.495-187.495-83.993-187.496-187.495-187.496z m128.61 490.234c33.055 0 59.969 26.914 59.969 59.97s-26.914 59.97-59.97 59.97H467.113c-33.055 0-59.97-26.914-59.97-59.97s26.915-59.97 59.97-59.97h257.22m0-72.252h-257.22c-72.975 0-132.222 59.247-132.222 132.222 0 72.975 59.247 132.222 132.222 132.222h257.22c72.974 0 132.222-59.247 132.222-132.222-0.181-73.156-59.248-132.222-132.223-132.222z" p-id="2567"></path></svg>