<?xml version="1.0" standalone="no"?><!DOCTYPE svg PUBLIC "-//W3C//DTD SVG 1.1//EN" "http://www.w3.org/Graphics/SVG/1.1/DTD/svg11.dtd"><svg t="1524552088798" class="icon" style="" viewBox="0 0 1024 1024" version="1.1" xmlns="http://www.w3.org/2000/svg" p-id="2373" xmlns:xlink="http://www.w3.org/1999/xlink" width="200" height="200"><defs><style type="text/css"></style></defs><path d="M512 1024c0 0-435.2-151.488-435.2-419.2L76.8 154.688 512 0l435.2 154.688L947.2 604.8C947.2 872.512 512 1024 512 1024L512 1024zM512 179.2c-173.888 0-315.712 141.888-315.712 315.712 0 173.888 141.888 315.712 315.712 315.712s315.712-141.888 315.712-315.712C827.712 321.088 685.888 179.2 512 179.2L512 179.2zM690.112 477.888C681.6 392.512 614.4 324.288 529.088 316.8l0-102.4c141.888 8.512 256 121.6 263.488 263.488L690.112 477.888 690.112 477.888zM368 477.888C375.488 411.712 428.8 358.4 494.912 350.912l0 126.912L368 477.824 368 477.888zM333.888 477.888l-102.4 0c8.512-141.888 121.6-256 263.488-263.488l0 102.4C409.6 324.288 341.312 392.512 333.888 477.888L333.888 477.888zM333.888 512C342.4 597.312 409.6 665.6 494.912 673.088l0 102.4C353.088 768 238.912 653.888 231.488 512L333.888 512 333.888 512zM368 512l126.912 0 0 126.912C428.8 631.488 375.488 578.112 368 512L368 512zM656 512C648.512 578.112 595.2 631.488 529.088 638.912L529.088 512 656 512 656 512zM656 477.888 529.088 477.888 529.088 350.912C595.2 358.4 648.512 411.712 656 477.888L656 477.888zM690.112 512l102.4 0c-8.512 141.888-121.6 256-263.488 263.488l0-102.4C614.4 665.6 682.688 597.312 690.112 512L690.112 512zM690.112 512" p-id="2374"></path></svg>