<?xml version="1.0" standalone="no"?><!DOCTYPE svg PUBLIC "-//W3C//DTD SVG 1.1//EN" "http://www.w3.org/Graphics/SVG/1.1/DTD/svg11.dtd"><svg t="1556176358722" class="icon" style="" viewBox="0 0 1365 1024" version="1.1" xmlns="http://www.w3.org/2000/svg" p-id="2462" xmlns:xlink="http://www.w3.org/1999/xlink" width="42.65625" height="32"><defs><style type="text/css"></style></defs><path d="M1364.585813 512.341333c-5.461333-36.522667-21.162667-68.693333-42.581333-98.133333a3519.658667 3519.658667 0 0 0-58.709333-78.08 5024.170667 5024.170667 0 0 0-76.885334-98.645333c-15.872-19.712-37.205333-27.818667-62.634666-27.733334-75.008 0.256-150.101333 0.085333-225.28 0.170667a78.848 78.848 0 0 0-19.114667 2.218667c-24.832 6.570667-38.741333 26.368-38.741333 54.528V780.8c0 3.413333 0 6.912 0.341333 10.410667 2.56 25.941333 26.538667 47.445333 51.456 45.397333 7.338667-45.141333 28.16-83.541333 62.890667-113.664 35.157333-30.378667 76.544-45.226667 122.88-45.226667 76.8-0.170667 165.888 54.954667 183.381333 159.914667l32.768-0.085333c9.898667-0.170667 20.224 0.597333 29.781333-1.450667 25.429333-5.461333 40.96-26.112 40.96-53.504 0.170667-85.845333 0-171.776 0-257.536a60.757333 60.757333 0 0 0-0.512-12.8z m-366.421333 11.434667V314.026667h9.386667c36.693333 0 73.728 0.512 110.592-0.170667a33.706667 33.706667 0 0 1 29.781333 14.506667c38.656 52.906667 77.141333 106.154667 115.029333 159.744 6.314667 8.96 9.557333 20.224 14.08 30.464 0.682667 1.28 0.085333 3.072 0.085334 5.12h-278.954667zM787.391147 49.834667c0.170667 2.986667 0.170667 5.973333 0.170666 8.874666 0 240.298667-0.085333 480.597333 0.170667 720.896 0 23.296-7.936 41.728-29.269333 52.309334a52.394667 52.394667 0 0 1-23.210667 5.461333c-68.608 0.426667-137.216 0.256-205.824 0.256-0.853333 0-1.706667-0.256-1.706667-0.256-28.757333-106.666667-94.464-165.888-208.042666-157.610667-76.288 5.461333-147.626667 66.645333-162.645334 157.866667h-9.216c-28.757333 0-57.685333-1.109333-86.357333 0.341333-36.693333 1.706667-61.525333-22.357333-61.354667-61.013333C0.703147 538.197333 0.447147 299.605333 0.447147 60.928c0-4.352 0.170667-8.533333 0.597333-12.8a51.2 51.2 0 0 1 47.189333-46.933333C51.98848 0.853333 55.743147 0.597333 59.583147 0.597333L728.767147 0.597333c19.114667-0.085333 35.584 4.693333 47.786666 20.309334 6.485333 8.533333 10.325333 18.090667 10.837334 28.928z m-445.610667 693.76a120.832 120.832 0 0 1 120.917333 120.32A120.917333 120.917333 0 0 1 341.439147 984.917333a120.661333 120.661333 0 1 1 0.256-241.322666z m735.744 0a120.32 120.32 0 0 1 120.149333 121.6 120.576 120.576 0 0 1-121.344 119.722666 121.088 121.088 0 0 1-120.832-121.258666 121.002667 121.002667 0 0 1 122.026667-120.064z" p-id="2463"></path></svg>