<?xml version="1.0" standalone="no"?><!DOCTYPE svg PUBLIC "-//W3C//DTD SVG 1.1//EN" "http://www.w3.org/Graphics/SVG/1.1/DTD/svg11.dtd"><svg t="1592279278603" class="icon" viewBox="0 0 1075 1024" version="1.1" xmlns="http://www.w3.org/2000/svg" p-id="2855" xmlns:xlink="http://www.w3.org/1999/xlink" width="67.1875" height="64"><defs><style type="text/css"></style></defs><path d="M820.224 699.904l2.56-2.048v-0.512c10.752-12.288 10.752-30.72 0-43.008l-1.024-1.024c-51.2-52.736-114.688-92.672-184.32-115.712 80.896-48.64 131.072-135.68 131.584-231.424 0-154.112-125.44-279.552-279.552-279.552S209.92 152.064 209.92 306.176c0.512 95.232 50.176 182.272 131.072 230.912-86.016 28.16-160.768 80.896-216.064 153.6C66.048 768 34.304 860.16 33.792 957.952c1.024 17.92 15.872 31.744 33.28 31.744h1.536c17.408-1.024 31.232-14.336 31.744-32.256 3.072-211.456 177.664-380.928 389.12-378.88 106.496-0.512 209.92 43.008 283.648 119.296 12.8 13.312 33.28 14.336 47.104 2.048z m-543.232-394.24c-1.536-56.832 19.456-110.592 58.368-152.064s91.648-64.512 148.48-66.048c117.248-3.072 215.04 89.6 218.112 206.848 3.072 117.248-89.6 215.04-206.848 218.112h-8.192c-113.152 0-206.336-90.624-209.92-203.776v-3.072z" p-id="2856"></path><path d="M600.576 818.176h437.248l-92.16-130.048-49.664 34.816 24.576 35.328h-320c-16.384 0-30.208 13.312-30.208 30.208 0 8.192 3.072 15.36 8.704 21.504 6.144 5.12 13.824 8.192 21.504 8.192zM1003.008 858.624h-428.544l62.976 126.464 54.272-27.136-19.456-38.912h330.24c16.384 0 30.208-13.824 30.208-30.208v-0.512c0-16.896-13.312-29.696-29.696-29.696z" p-id="2857"></path></svg>