<?xml version="1.0" standalone="no"?><!DOCTYPE svg PUBLIC "-//W3C//DTD SVG 1.1//EN" "http://www.w3.org/Graphics/SVG/1.1/DTD/svg11.dtd"><svg t="1514861746436" class="icon" style="" viewBox="0 0 1024 1024" version="1.1" xmlns="http://www.w3.org/2000/svg" p-id="1929" xmlns:xlink="http://www.w3.org/1999/xlink" width="200" height="200"><defs><style type="text/css"></style></defs><path d="M899.267673 950.941054 123.007033 950.941054c-30.619368 0-55.447846-24.799826-55.447846-55.44887L67.559187 285.575084c0-30.648021 24.828478-55.447846 55.447846-55.447846l776.261663 0c30.620391 0 55.446823 24.799826 55.446823 55.447846l0 609.918124C954.714496 926.141228 929.888064 950.941054 899.267673 950.941054zM663.076322 538.932396 493.675144 417.9643c-35.059494-25.01472-81.979106 1.896186-81.979106 47.055712l0 241.87684c0 45.106314 46.919613 72.071456 81.979106 47.055712l169.401178-120.969119C694.373119 610.624205 694.373119 561.29266 663.076322 538.932396zM178.45488 119.234615c0-30.593785 24.825408-55.447846 55.444776-55.447846l554.473347 0c30.619368 0 55.44887 24.854061 55.44887 55.447846l0 55.444776L178.45488 174.679391 178.45488 119.234615z" p-id="1930"></path></svg>