<?xml version="1.0" standalone="no"?><!DOCTYPE svg PUBLIC "-//W3C//DTD SVG 1.1//EN" "http://www.w3.org/Graphics/SVG/1.1/DTD/svg11.dtd"><svg class="icon" width="200px" height="200.00px" viewBox="0 0 1024 1024" version="1.1" xmlns="http://www.w3.org/2000/svg"><path d="M887.188211 239.279158l2.694736 711.545263c0 16.437895-13.123368 29.642105-29.466947 29.642105H176.666947a29.453474 29.453474 0 0 1-29.453473-29.642105V73.000421c0-16.437895 13.109895-29.642105 29.453473-29.642105l519.370106-1.091369L655.090526 0h-476.968421c-38.265263 0-69.160421 31.083789-69.160421 69.564632v884.870736C108.948211 992.916211 139.856842 1024 178.122105 1024h680.879158c38.265263 0 69.160421-31.083789 69.160421-69.564632V281.573053l-40.96-42.307369z" fill="#D6473B" fill-opacity=".4" /><path d="M659.348211 206.093474c0 41.728 33.050947 75.506526 73.87621 75.506526h194.92379L659.348211 0v206.093474z" fill="#EF6A63" /><path d="M313.748211 571.796211l24.72421-34.66779 116.291368 88.481684L737.899789 396.8l23.848422 22.662737L456.730947 716.8z" fill="#FA4E4E" /></svg>