<?xml version="1.0" standalone="no"?><!DOCTYPE svg PUBLIC "-//W3C//DTD SVG 1.1//EN" "http://www.w3.org/Graphics/SVG/1.1/DTD/svg11.dtd"><svg class="icon" width="200px" height="200.00px" viewBox="0 0 1024 1024" version="1.1" xmlns="http://www.w3.org/2000/svg"><path d="M772.386595 69.189189H46.508973A46.495135 46.495135 0 0 0 0 115.698162v782.598919a46.495135 46.495135 0 0 0 46.508973 46.508973h930.982054A46.495135 46.495135 0 0 0 1024 898.310919V296.268108L772.386595 69.203027z" fill="#FF9333" /><path d="M412.021622 678.054054l99.743135-143.968865L611.978378 678.054054h47.519136l-124.678919-174.550486 115.739675-161.376865h-47.519135l-91.274378 130.795243-90.803892-130.795243h-47.519135l114.798702 161.376865L364.502486 678.054054z" fill="#FFFFFF" /><path d="M819.130811 297.416649a46.522811 46.522811 0 0 1-46.744216-46.495135V69.189189L1024 296.281946l-204.869189 1.134703z" fill="#FFCA9F" /></svg>